<svg width="597" height="247" viewBox="0 0 597 247" fill="none" xmlns="http://www.w3.org/2000/svg">
<path d="M0.184082 133.991C0.184082 100.299 11.7808 69.5986 34.9741 41.8887C58.1675 14.0566 83.8022 0.140625 111.878 0.140625C126.771 0.140625 138.795 5.93896 147.95 17.5356C157.105 29.0103 161.683 44.147 161.683 62.9458C161.683 95.2944 149.903 125.263 126.344 152.851C102.906 180.438 77.3936 194.232 49.8057 194.232C35.4014 194.232 23.4995 188.556 14.1001 177.204C4.82275 165.851 0.184082 151.447 0.184082 133.991ZM133.668 84.9185C133.668 65.2651 129.273 49.396 120.484 37.311C111.695 25.104 100.221 19.0005 86.0605 19.0005C70.0693 19.0005 56.3975 27.7896 45.0449 45.3677C33.8145 62.8237 28.1992 83.9419 28.1992 108.722C28.1992 128.742 32.5327 144.855 41.1997 157.062C49.9888 169.147 61.5244 175.189 75.8066 175.189C91.7979 175.189 105.409 166.4 116.639 148.822C127.992 131.244 133.668 109.943 133.668 84.9185ZM256.715 105.976C297.242 112.567 317.506 131.183 317.506 161.823C317.506 183.551 306.764 203.021 285.279 220.233C263.795 237.567 239.625 246.234 212.77 246.234C197.877 246.234 183.412 243.976 169.374 239.459L190.98 216.205C208.436 223.651 224.549 227.375 239.32 227.375C255.311 227.375 268.556 222.797 279.054 213.642C289.552 204.608 294.801 193.134 294.801 179.218C294.801 162.616 287.293 149.372 272.279 139.484C257.386 129.596 237.306 124.652 212.037 124.652C208.131 124.652 203.858 125.141 199.22 126.117L221.009 104.694H227.052C229.005 104.694 231.996 104.755 236.024 104.877C274.842 95.2334 294.251 76.9229 294.251 49.9453C294.251 39.6914 290.711 31.3296 283.631 24.8599C276.673 18.3901 267.64 15.1553 256.532 15.1553C238.954 15.1553 224.366 21.0146 212.77 32.7334C211.549 30.4141 210.938 28.7051 210.938 27.6064C210.938 21.8691 217.896 15.8877 231.812 9.66211C245.729 3.31445 258.973 0.140625 271.546 0.140625C286.927 0.140625 299.5 3.9248 309.266 11.4932C319.154 19.0615 324.098 28.7661 324.098 40.6069C324.098 64.7769 301.637 86.5664 256.715 105.976ZM359.75 191.021C350.814 191.021 346.347 185.103 346.347 173.269C346.347 163.737 349.841 154.563 356.831 145.747C363.821 136.891 371.068 132.463 378.574 132.463C387.629 132.463 392.156 138.38 392.156 150.215C392.156 159.786 388.661 168.979 381.672 177.796C374.682 186.612 367.375 191.021 359.75 191.021ZM366.958 184.349C371.525 184.349 375.338 181.807 378.396 176.724C381.493 171.64 383.042 165.306 383.042 157.721C383.042 145.33 379.19 139.135 371.485 139.135C366.958 139.135 363.146 141.696 360.048 146.819C356.99 151.903 355.461 158.217 355.461 165.763C355.461 178.153 359.293 184.349 366.958 184.349ZM443.268 140.922H417.533L414.555 167.252C414.038 171.978 413.78 175.473 413.78 177.736C413.78 182.224 415.309 184.468 418.367 184.468C421.663 184.468 425.079 181.767 428.613 176.366C429.209 177.121 429.507 177.796 429.507 178.392C429.507 180.616 427.541 183.276 423.609 186.374C419.717 189.472 416.362 191.021 413.542 191.021C407.903 191.021 405.083 187.407 405.083 180.179C405.083 177.518 405.421 173.209 406.096 167.252L409.015 140.922H396.445L403.415 134.012H409.789L411.04 123.17L419.797 120.251L418.308 134.012H444.042C445.432 120.271 448.847 109.568 454.288 101.903C462.826 89.9495 472.834 83.9727 484.312 83.9727C486.257 83.9727 488.164 84.1911 490.03 84.6279L481.273 93.2061C479.01 92.5309 476.885 92.1934 474.899 92.1934C463.065 92.1934 456.115 101.407 454.05 119.834L449.999 156.589C454.646 149.599 459.749 143.841 465.309 139.313C470.908 134.746 475.674 132.463 479.605 132.463C483.497 132.463 485.443 135.163 485.443 140.564C485.443 142.113 485.205 144.536 484.729 147.832L481.512 170.052C480.876 174.46 480.559 177.994 480.559 180.655C480.559 182.681 481.134 183.693 482.286 183.693C485.066 183.693 488.422 180.04 492.354 172.732C493.307 173.328 493.783 173.944 493.783 174.579C493.783 177.2 491.559 180.596 487.111 184.766C482.703 188.936 479.109 191.021 476.329 191.021C473.231 191.021 471.683 188.797 471.683 184.349C471.683 181.092 472.1 176.585 472.934 170.826L475.019 156.41C475.694 151.684 476.031 147.951 476.031 145.211C476.031 142.113 474.939 140.564 472.755 140.564C467.672 140.564 462.509 144.02 457.267 150.93C452.064 157.84 449.026 165.227 448.152 173.09L446.544 187.387L437.668 191.021L437.847 189.353L438.323 184.944L438.8 180.774L443.268 140.922ZM535.602 170.528C536.594 171.203 537.091 171.998 537.091 172.911C537.091 174.142 535.82 176.247 533.278 179.226C526.487 187.089 519.776 191.021 513.144 191.021C509.093 191.021 505.757 189.412 503.136 186.195C500.515 182.979 499.204 178.868 499.204 173.864C499.204 164.81 502.619 155.656 509.45 146.402C516.321 137.109 523.112 132.463 529.823 132.463C534.668 132.463 537.091 135.064 537.091 140.267C537.091 146.104 534.251 151.803 528.572 157.363C522.933 162.923 516.043 166.795 507.901 168.979C508.696 178.55 512.468 183.336 519.22 183.336C525.892 183.336 531.352 179.067 535.602 170.528ZM508.14 161.712C509.291 162.109 510.344 162.308 511.297 162.308C516.221 162.308 520.53 160.799 524.224 157.78C527.917 154.762 529.764 151.228 529.764 147.177C529.764 142.53 527.401 140.207 522.675 140.207C519.259 140.207 516.162 142.252 513.382 146.343C510.642 150.394 508.894 155.517 508.14 161.712ZM564.255 157.542C573.071 140.823 581.749 132.463 590.287 132.463C592.511 132.463 594.735 132.979 596.959 134.012L588.56 143.186C587.289 142.471 585.66 142.113 583.675 142.113C579.545 142.113 575.176 145.469 570.569 152.181C566.002 158.853 563.322 165.802 562.527 173.03L560.919 187.565L552.103 190.544L552.281 188.757L552.698 184.885L553.175 181.013L556.272 152.657L556.63 149.56C556.908 147.216 557.047 145.31 557.047 143.841C557.047 141.418 556.372 140.207 555.021 140.207C551.844 140.207 548.687 143.603 545.55 150.394C544.557 149.639 544.08 148.865 544.12 148.07C544.239 145.648 546.443 142.451 550.732 138.479C555.061 134.468 558.477 132.463 560.979 132.463C564.354 132.463 566.042 134.687 566.042 139.135C566.042 140.207 565.943 141.657 565.744 143.483L565.327 147.653L564.791 152.657L564.255 157.542Z" fill="black"/>
</svg>
