<svg width="404" height="46" viewBox="0 0 404 46" fill="none" xmlns="http://www.w3.org/2000/svg">
<path d="M51.101 26.604C51.101 26.898 51.08 27.276 51.038 27.738C50.996 28.158 50.807 28.998 50.471 30.258C50.135 31.518 49.673 32.736 49.085 33.912C48.497 35.046 47.573 36.327 46.313 37.755C45.095 39.141 43.625 40.359 41.903 41.409C40.223 42.417 37.997 43.278 35.225 43.992C32.495 44.664 29.45 45 26.09 45C21.428 45 17.375 44.307 13.931 42.921C10.487 41.535 7.946 39.855 6.308 37.881C4.712 35.865 3.452 33.87 2.528 31.896C1.604 29.922 1.079 28.242 0.953 26.856L0.701 24.777H15.065C15.065 24.861 15.065 25.008 15.065 25.218C15.107 25.386 15.191 25.764 15.317 26.352C15.485 26.898 15.674 27.423 15.884 27.927C16.136 28.431 16.514 28.998 17.018 29.628C17.564 30.216 18.194 30.741 18.908 31.203C19.622 31.665 20.546 32.043 21.68 32.337C22.856 32.631 24.158 32.778 25.586 32.778C27.014 32.778 28.316 32.673 29.492 32.463C30.668 32.211 31.613 31.917 32.327 31.581C33.083 31.203 33.734 30.804 34.28 30.384C34.826 29.964 35.225 29.544 35.477 29.124C35.729 28.662 35.939 28.263 36.107 27.927C36.275 27.549 36.38 27.255 36.422 27.045V26.667V15.39H18.656V0.773999H51.101V26.604ZM83.2153 0.0809963C87.2053 0.0809963 90.7333 0.311997 93.7993 0.773999C96.8653 1.194 99.7003 1.929 102.304 2.979C104.908 4.029 107.029 5.415 108.667 7.137C110.347 8.817 111.649 10.959 112.573 13.563C113.497 16.125 113.959 19.149 113.959 22.635C113.959 26.079 113.539 29.061 112.699 31.581C111.901 34.101 110.725 36.243 109.171 38.007C107.659 39.729 105.643 41.136 103.123 42.228C100.645 43.278 97.8313 44.034 94.6813 44.496C91.5313 44.958 87.8563 45.189 83.6562 45.189C73.2403 45.189 65.6593 43.299 60.9133 39.519C56.2093 35.697 53.8573 29.796 53.8573 21.816C53.8573 14.424 56.2723 8.964 61.1023 5.436C65.9323 1.866 73.3033 0.0809963 83.2153 0.0809963ZM83.7823 33.597C88.2343 33.597 91.6783 32.694 94.1143 30.888C96.5503 29.082 97.7683 26.331 97.7683 22.635C97.7683 19.065 96.4873 16.356 93.9253 14.508C91.3633 12.618 87.9193 11.673 83.5933 11.673C81.3253 11.673 79.3303 11.925 77.6083 12.429C75.8863 12.891 74.4583 13.605 73.3243 14.571C72.2323 15.537 71.4133 16.692 70.8673 18.036C70.3213 19.38 70.0483 20.913 70.0483 22.635C70.0483 25.953 71.2033 28.62 73.5133 30.636C75.8233 32.61 79.2463 33.597 83.7823 33.597ZM146.077 45C139.483 45 133.981 44.349 129.571 43.047C125.161 41.745 122.116 39.498 120.436 36.306C119.218 33.912 118.399 30.951 117.979 27.423C117.559 23.853 117.349 18.498 117.349 11.358L117.412 0.773999H132.91V20.556C132.91 21.816 132.973 22.95 133.099 23.958C133.225 24.924 133.54 25.995 134.044 27.171C134.59 28.347 135.325 29.334 136.249 30.132C137.173 30.888 138.475 31.539 140.155 32.085C141.835 32.589 143.809 32.841 146.077 32.841C148.387 32.841 150.361 32.589 151.999 32.085C153.679 31.539 154.939 30.888 155.779 30.132C156.661 29.376 157.354 28.41 157.858 27.234C158.362 26.016 158.656 24.924 158.74 23.958C158.866 22.992 158.929 21.858 158.929 20.556V0.773999H174.427V11.358C174.469 18.498 174.28 23.853 173.86 27.423C173.44 30.951 172.621 33.912 171.403 36.306C170.521 37.986 169.261 39.414 167.623 40.59C166.027 41.724 164.095 42.606 161.827 43.236C159.559 43.866 157.165 44.328 154.645 44.622C152.125 44.874 149.269 45 146.077 45ZM177.889 0.773999H210.397C211.237 0.773999 212.035 0.794998 212.791 0.836998C213.547 0.878997 214.597 1.026 215.941 1.278C217.327 1.488 218.566 1.803 219.658 2.223C220.792 2.601 221.989 3.21 223.249 4.05C224.509 4.848 225.559 5.814 226.399 6.948C227.281 8.04 227.995 9.447 228.541 11.169C229.129 12.891 229.423 14.844 229.423 17.028C229.423 24 226.714 28.977 221.296 31.959L230.368 45L213.421 44.937L205.861 34.542H192.568V45H177.889V0.773999ZM209.011 21.627C212.665 21.627 214.492 20.241 214.492 17.469C214.492 14.949 212.581 13.689 208.759 13.689H192.568V21.627H209.011ZM290.137 45H270.103L248.431 18.351V45H233.752V0.773999H254.227L275.521 26.982V0.773999H290.137V45ZM335.039 0.899997L354.884 45H337.874L334.535 37.566H312.674L309.335 45H292.451L312.233 0.899997H335.039ZM317.903 24.84H329.306L323.573 13.248L317.903 24.84ZM371.601 30.321H403.668V45H356.922V0.773999H371.601V30.321Z" fill="black"/>
</svg>
