<svg width="228" height="235" viewBox="0 0 228 235" fill="none" xmlns="http://www.w3.org/2000/svg">
<path d="M36.0352 135.566C36.1654 151.842 37.3698 162.845 39.6484 168.574C41.9271 174.238 45.3776 177.07 50 177.07C55.7943 177.07 59.7005 171.797 61.7188 161.25C62.8255 155.456 63.3789 146.895 63.3789 135.566V89.7656C63.3789 73.5547 62.207 62.6172 59.8633 56.9531C57.5846 51.224 54.2318 48.3594 49.8047 48.3594C45.3125 48.3594 41.8945 51.2565 39.5508 57.0508C37.207 62.7799 36.0352 73.6849 36.0352 89.7656V135.566ZM4.58984 113.594C4.58984 89.7005 9.92839 71.2109 20.6055 58.125C29.069 47.7083 38.7695 42.5 49.707 42.5C62.3372 42.5 72.9818 48.9128 81.6406 61.7383C90.4297 74.8893 94.8242 91.4258 94.8242 111.348C94.8242 134.85 89.8438 153.145 79.8828 166.23C71.4844 177.233 61.4583 182.734 49.8047 182.734C41.6016 182.734 34.6029 180.326 28.8086 175.508C23.0143 170.69 18.0664 164.473 13.9648 156.855C10.4492 150.41 7.97526 143.021 6.54297 134.688C5.69661 129.805 5.04557 122.773 4.58984 113.594ZM113.379 175.215C123.535 175.215 130.046 173.848 132.91 171.113C135.775 168.314 137.207 163.04 137.207 155.293V78.2422C137.207 73.2943 136.621 69.7786 135.449 67.6953C134.342 65.612 132.259 64.5703 129.199 64.5703C127.572 64.5703 125.065 65.1237 121.68 66.2305C119.531 66.8815 116.602 67.9232 112.891 69.3555V64.2773L163.379 42.5H166.895V156.465C166.895 163.757 168.066 168.704 170.41 171.309C172.754 173.913 178.743 175.215 188.379 175.215V180H113.379V175.215ZM10.4492 212.484C12.832 212.445 14.4206 212.172 15.2148 211.664C16.4779 210.857 17.1094 209.118 17.1094 206.449C17.1094 204.626 16.8034 203.155 16.1914 202.035C15.5794 200.915 14.4076 200.355 12.6758 200.355C11.8815 200.355 11.3086 200.453 10.957 200.648C10.6185 200.831 10.4492 201.195 10.4492 201.742V212.484ZM0.644531 224.984C1.95964 224.893 2.83854 224.62 3.28125 224.164C3.73698 223.695 3.96484 222.751 3.96484 221.332V203.656C3.96484 202.146 3.73698 201.195 3.28125 200.805C2.82552 200.401 1.94661 200.128 0.644531 199.984V198.969H13.5156C16.9271 198.969 19.5182 199.522 21.2891 200.629C23.0729 201.736 23.9648 203.637 23.9648 206.332C23.9648 207.647 23.6133 208.884 22.9102 210.043C22.2201 211.189 21.0742 212.113 19.4727 212.816C18.2617 213.311 17.0508 213.611 15.8398 213.715C14.6289 213.819 12.832 213.871 10.4492 213.871V221.332C10.4492 222.803 10.6966 223.767 11.1914 224.223C11.6862 224.678 12.6107 224.932 13.9648 224.984V226H0.644531V224.984ZM25.0977 225.043C25.8268 224.952 26.3607 224.757 26.6992 224.457C27.0508 224.145 27.2266 223.533 27.2266 222.621V202.25C27.2266 201.456 27.0833 200.902 26.7969 200.59C26.5104 200.264 25.944 200.049 25.0977 199.945V198.969H32.832V210.219C33.6523 209.229 34.5117 208.467 35.4102 207.934C36.3216 207.387 37.3438 207.113 38.4766 207.113C40.013 207.113 41.2826 207.562 42.2852 208.461C43.2878 209.346 43.7891 210.863 43.7891 213.012V222.621C43.7891 223.52 43.9388 224.112 44.2383 224.398C44.5508 224.672 45.0651 224.887 45.7812 225.043V226H36.3867V225.043C37.1029 224.9 37.5911 224.704 37.8516 224.457C38.112 224.21 38.2422 223.65 38.2422 222.777V213.09C38.2422 212.178 38.151 211.495 37.9688 211.039C37.6562 210.219 37.0378 209.809 36.1133 209.809C35.4232 209.809 34.707 210.128 33.9648 210.766C33.2357 211.404 32.8711 211.84 32.8711 212.074V222.777C32.8711 223.65 33.0013 224.21 33.2617 224.457C33.5221 224.704 34.0104 224.9 34.7266 225.043V226H25.0977V225.043ZM47.5977 216.84C47.5977 214.053 48.4505 211.729 50.1562 209.867C51.875 208.005 54.0299 207.074 56.6211 207.074C59.2643 207.074 61.4258 208.025 63.1055 209.926C64.7982 211.827 65.6445 214.132 65.6445 216.84C65.6445 219.509 64.8112 221.807 63.1445 223.734C61.4779 225.648 59.3034 226.605 56.6211 226.605C54.0169 226.605 51.862 225.674 50.1562 223.812C48.4505 221.938 47.5977 219.613 47.5977 216.84ZM53.4766 216.84C53.4766 219.639 53.6198 221.599 53.9062 222.719C54.362 224.451 55.2669 225.316 56.6211 225.316C57.9102 225.316 58.7565 224.652 59.1602 223.324C59.5638 221.996 59.7656 219.835 59.7656 216.84C59.7656 213.858 59.5508 211.703 59.1211 210.375C58.7044 209.034 57.8776 208.363 56.6406 208.363C55.2865 208.363 54.3815 209.229 53.9258 210.961C53.6263 212.12 53.4766 214.079 53.4766 216.84ZM67.3633 209.34V208.227C67.7148 207.901 68.151 207.517 68.6719 207.074C69.362 206.436 70.013 205.779 70.625 205.102C71.8359 203.773 72.9362 202.348 73.9258 200.824H74.9414V207.582H78.75V209.34H74.9414V221.371C74.9414 221.931 75.026 222.4 75.1953 222.777C75.4557 223.363 75.8854 223.656 76.4844 223.656C77.0052 223.656 77.4414 223.474 77.793 223.109C78.1445 222.732 78.4961 222.217 78.8477 221.566L79.8047 222.035C79.3359 223.129 78.776 224.021 78.125 224.711C76.9792 225.922 75.5794 226.527 73.9258 226.527C72.9883 226.527 72.168 226.352 71.4648 226C70.1107 225.323 69.4336 224.092 69.4336 222.309V209.34H67.3633ZM80.918 216.84C80.918 214.053 81.7708 211.729 83.4766 209.867C85.1953 208.005 87.3503 207.074 89.9414 207.074C92.5846 207.074 94.7461 208.025 96.4258 209.926C98.1185 211.827 98.9648 214.132 98.9648 216.84C98.9648 219.509 98.1315 221.807 96.4648 223.734C94.7982 225.648 92.6237 226.605 89.9414 226.605C87.3372 226.605 85.1823 225.674 83.4766 223.812C81.7708 221.938 80.918 219.613 80.918 216.84ZM86.7969 216.84C86.7969 219.639 86.9401 221.599 87.2266 222.719C87.6823 224.451 88.5872 225.316 89.9414 225.316C91.2305 225.316 92.0768 224.652 92.4805 223.324C92.8841 221.996 93.0859 219.835 93.0859 216.84C93.0859 213.858 92.8711 211.703 92.4414 210.375C92.0247 209.034 91.1979 208.363 89.9609 208.363C88.6068 208.363 87.7018 209.229 87.2461 210.961C86.9466 212.12 86.7969 214.079 86.7969 216.84ZM106.797 213.559C106.797 215.095 106.927 216.234 107.188 216.977C107.578 218.148 108.327 218.734 109.434 218.734C110.436 218.734 111.126 218.298 111.504 217.426C111.882 216.54 112.07 215.251 112.07 213.559C112.07 211.762 111.868 210.453 111.465 209.633C111.074 208.812 110.397 208.402 109.434 208.402C108.379 208.402 107.676 208.845 107.324 209.73C106.973 210.603 106.797 211.879 106.797 213.559ZM104.473 230.355C104.473 231.176 104.909 231.82 105.781 232.289C106.667 232.758 107.943 232.992 109.609 232.992C111.094 232.992 112.318 232.875 113.281 232.641C115.091 232.198 115.996 231.384 115.996 230.199C115.996 229.509 115.736 228.988 115.215 228.637C114.707 228.298 113.776 228.129 112.422 228.129H105.859C105.443 228.467 105.143 228.754 104.961 228.988C104.635 229.418 104.473 229.874 104.473 230.355ZM100.957 230.629C100.957 230.056 101.191 229.464 101.66 228.852C102.142 228.253 102.969 227.862 104.141 227.68V227.406C103.359 227.107 102.793 226.801 102.441 226.488C101.816 225.928 101.504 225.18 101.504 224.242C101.504 223.122 101.992 222.165 102.969 221.371C103.958 220.577 104.922 220.023 105.859 219.711V219.438C104.505 218.891 103.411 218.109 102.578 217.094C101.745 216.078 101.328 214.848 101.328 213.402C101.328 211.579 102.057 210.076 103.516 208.891C104.974 207.706 106.947 207.113 109.434 207.113C110.371 207.113 111.23 207.204 112.012 207.387C112.793 207.569 113.398 207.758 113.828 207.953H119.102V210.082H115.859C116.38 210.59 116.777 211.182 117.051 211.859C117.337 212.536 117.48 213.272 117.48 214.066C117.48 216.566 116.289 218.279 113.906 219.203C112.656 219.698 111.1 219.945 109.238 219.945C108.835 219.945 108.568 219.939 108.438 219.926C108.32 219.913 108.138 219.906 107.891 219.906C107.5 219.971 107.09 220.18 106.66 220.531C106.217 220.896 105.996 221.332 105.996 221.84C105.996 222.243 106.107 222.556 106.328 222.777C106.549 222.999 106.855 223.135 107.246 223.188C107.441 223.214 107.858 223.24 108.496 223.266C109.134 223.279 109.629 223.285 109.98 223.285L112.578 223.324C114.049 223.35 115.286 223.565 116.289 223.969C118.203 224.75 119.16 226.15 119.16 228.168C119.16 230.772 117.728 232.562 114.863 233.539C113.353 234.047 111.452 234.301 109.16 234.301C107.285 234.301 105.671 234.118 104.316 233.754C102.077 233.142 100.957 232.1 100.957 230.629ZM120.762 225.043C121.53 224.952 122.064 224.77 122.363 224.496C122.663 224.223 122.826 223.695 122.852 222.914L122.891 221.742V210.863C122.891 210.03 122.747 209.464 122.461 209.164C122.174 208.865 121.608 208.663 120.762 208.559V207.582H128.359V210.727C129.206 209.62 130.046 208.741 130.879 208.09C131.712 207.439 132.676 207.113 133.77 207.113C134.59 207.113 135.326 207.38 135.977 207.914C136.641 208.435 136.973 209.203 136.973 210.219C136.973 211 136.738 211.645 136.27 212.152C135.814 212.66 135.215 212.914 134.473 212.914C133.626 212.914 132.891 212.517 132.266 211.723C131.654 210.928 131.224 210.531 130.977 210.531C130.443 210.531 129.902 210.863 129.355 211.527C128.822 212.178 128.555 213.116 128.555 214.34V221.898C128.555 223.227 128.743 224.06 129.121 224.398C129.512 224.724 130.28 224.939 131.426 225.043V226H120.762V225.043ZM146.582 223.715C147.233 223.715 147.839 223.52 148.398 223.129C148.711 222.895 149.082 222.53 149.512 222.035V216.195C148.444 216.456 147.507 216.866 146.699 217.426C145.332 218.376 144.648 219.587 144.648 221.059C144.648 221.931 144.844 222.595 145.234 223.051C145.638 223.493 146.087 223.715 146.582 223.715ZM138.828 222.27C138.828 220.473 139.694 219.047 141.426 217.992C143.158 216.938 145.872 215.876 149.57 214.809V211.898C149.57 210.714 149.316 209.841 148.809 209.281C148.314 208.708 147.428 208.422 146.152 208.422C145.436 208.422 144.844 208.559 144.375 208.832C143.919 209.092 143.691 209.424 143.691 209.828C143.691 209.984 143.717 210.115 143.77 210.219C143.822 210.323 143.9 210.434 144.004 210.551L144.238 210.824C144.421 211.046 144.564 211.293 144.668 211.566C144.785 211.827 144.844 212.107 144.844 212.406C144.844 213.161 144.59 213.747 144.082 214.164C143.587 214.568 143.008 214.77 142.344 214.77C141.576 214.77 140.918 214.542 140.371 214.086C139.837 213.63 139.57 212.973 139.57 212.113C139.57 210.577 140.293 209.359 141.738 208.461C143.184 207.562 144.961 207.113 147.07 207.113C149.336 207.113 151.23 207.549 152.754 208.422C154.264 209.307 155.02 210.935 155.02 213.305V222.992C155.02 223.279 155.091 223.526 155.234 223.734C155.391 223.93 155.56 224.027 155.742 224.027C155.898 224.027 156.035 224.001 156.152 223.949C156.283 223.884 156.478 223.721 156.738 223.461L157.344 224.301C156.562 225.212 155.697 225.85 154.746 226.215C154.147 226.449 153.516 226.566 152.852 226.566C151.667 226.566 150.801 226.221 150.254 225.531C149.941 225.141 149.714 224.561 149.57 223.793C148.464 224.9 147.214 225.681 145.82 226.137C144.974 226.423 144.141 226.566 143.32 226.566C142.227 226.566 141.204 226.221 140.254 225.531C139.303 224.828 138.828 223.741 138.828 222.27ZM169.512 224.34C170.957 224.34 171.934 223.383 172.441 221.469C172.715 220.414 172.852 218.897 172.852 216.918C172.852 214.626 172.643 212.803 172.227 211.449C171.81 210.082 170.964 209.398 169.688 209.398C168.828 209.398 168.06 209.776 167.383 210.531C166.706 211.286 166.367 211.833 166.367 212.172V221.898C166.367 222.289 166.686 222.797 167.324 223.422C167.975 224.034 168.704 224.34 169.512 224.34ZM158.535 233.285C159.395 233.194 159.98 232.992 160.293 232.68C160.605 232.38 160.762 231.807 160.762 230.961V210.863C160.762 210.03 160.612 209.47 160.312 209.184C160.026 208.884 159.466 208.676 158.633 208.559V207.582H166.27V210.219C166.816 209.307 167.35 208.637 167.871 208.207C168.809 207.452 170.007 207.074 171.465 207.074C173.561 207.074 175.299 207.862 176.68 209.438C178.073 211.013 178.77 213.363 178.77 216.488C178.77 219.392 178.021 221.801 176.523 223.715C175.039 225.616 173.229 226.566 171.094 226.566C170 226.566 168.965 226.247 167.988 225.609C167.467 225.271 166.927 224.789 166.367 224.164V227.543C166.38 229.34 166.393 230.349 166.406 230.57C166.497 231.625 166.764 232.348 167.207 232.738C167.663 233.129 168.418 233.357 169.473 233.422V234.242H158.535V233.285ZM180.723 225.043C181.452 224.952 181.986 224.757 182.324 224.457C182.676 224.145 182.852 223.533 182.852 222.621V202.25C182.852 201.456 182.708 200.902 182.422 200.59C182.135 200.264 181.569 200.049 180.723 199.945V198.969H188.457V210.219C189.277 209.229 190.137 208.467 191.035 207.934C191.947 207.387 192.969 207.113 194.102 207.113C195.638 207.113 196.908 207.562 197.91 208.461C198.913 209.346 199.414 210.863 199.414 213.012V222.621C199.414 223.52 199.564 224.112 199.863 224.398C200.176 224.672 200.69 224.887 201.406 225.043V226H192.012V225.043C192.728 224.9 193.216 224.704 193.477 224.457C193.737 224.21 193.867 223.65 193.867 222.777V213.09C193.867 212.178 193.776 211.495 193.594 211.039C193.281 210.219 192.663 209.809 191.738 209.809C191.048 209.809 190.332 210.128 189.59 210.766C188.861 211.404 188.496 211.84 188.496 212.074V222.777C188.496 223.65 188.626 224.21 188.887 224.457C189.147 224.704 189.635 224.9 190.352 225.043V226H180.723V225.043ZM202.988 231.156C202.988 230.245 203.249 229.574 203.77 229.145C204.303 228.715 204.935 228.5 205.664 228.5C206.302 228.5 206.823 228.689 207.227 229.066C207.643 229.444 207.852 229.893 207.852 230.414L207.754 231.293C207.754 231.462 207.819 231.618 207.949 231.762C208.079 231.905 208.242 231.977 208.438 231.977C209.089 231.977 209.694 231.449 210.254 230.395C210.605 229.743 211.113 228.467 211.777 226.566L206.973 214.711C206.634 213.878 206.302 213.096 205.977 212.367C205.664 211.638 205.332 210.928 204.98 210.238C204.616 209.535 204.329 209.092 204.121 208.91C203.913 208.728 203.535 208.611 202.988 208.559V207.582H212.988V208.559C212.363 208.572 211.849 208.643 211.445 208.773C211.055 208.904 210.859 209.184 210.859 209.613C210.859 209.704 210.879 209.828 210.918 209.984C210.97 210.141 211.074 210.421 211.23 210.824L214.375 218.871H214.688L217.246 211.664C217.376 211.273 217.48 210.935 217.559 210.648C217.65 210.349 217.695 210.089 217.695 209.867C217.695 209.307 217.507 208.956 217.129 208.812C216.764 208.656 216.217 208.572 215.488 208.559V207.582H221.543V208.559C221.022 208.598 220.592 208.741 220.254 208.988C219.928 209.223 219.59 209.802 219.238 210.727L213.262 226.664C212.168 229.607 211.224 231.605 210.43 232.66C209.648 233.715 208.418 234.242 206.738 234.242C205.514 234.242 204.583 233.917 203.945 233.266C203.307 232.628 202.988 231.924 202.988 231.156Z" fill="black"/>
</svg>
