<svg width="1146" height="432" viewBox="0 0 1146 432" fill="none" xmlns="http://www.w3.org/2000/svg">
<path d="M412.311 326.033C420.591 325.897 426.111 324.947 428.872 323.183C433.261 320.377 435.455 314.337 435.455 305.061C435.455 298.726 434.392 293.613 432.265 289.722C430.139 285.831 426.066 283.885 420.048 283.885C417.288 283.885 415.297 284.225 414.076 284.903C412.899 285.537 412.311 286.804 412.311 288.704V326.033ZM378.24 369.471C382.81 369.154 385.864 368.204 387.402 366.62C388.986 364.991 389.778 361.711 389.778 356.779V295.355C389.778 290.107 388.986 286.804 387.402 285.446C385.819 284.044 382.764 283.093 378.24 282.596V279.066H422.967C434.822 279.066 443.826 280.989 449.979 284.835C456.178 288.681 459.278 295.288 459.278 304.654C459.278 309.224 458.056 313.522 455.613 317.549C453.215 321.531 449.233 324.744 443.667 327.187C439.459 328.906 435.251 329.947 431.043 330.309C426.835 330.671 420.591 330.852 412.311 330.852V356.779C412.311 361.892 413.171 365.24 414.89 366.824C416.61 368.407 419.822 369.29 424.528 369.471V373H378.24V369.471ZM463.214 369.674C465.748 369.358 467.603 368.679 468.78 367.638C470.001 366.552 470.612 364.426 470.612 361.258V290.469C470.612 287.709 470.115 285.786 469.119 284.7C468.124 283.569 466.155 282.822 463.214 282.46V279.066H490.091V318.16C492.942 314.721 495.928 312.074 499.05 310.219C502.218 308.319 505.77 307.369 509.706 307.369C515.045 307.369 519.457 308.93 522.941 312.052C526.425 315.129 528.167 320.4 528.167 327.866V361.258C528.167 364.38 528.687 366.439 529.728 367.435C530.814 368.385 532.601 369.131 535.09 369.674V373H502.444V369.674C504.932 369.177 506.629 368.498 507.534 367.638C508.439 366.778 508.892 364.833 508.892 361.801V328.137C508.892 324.97 508.575 322.594 507.941 321.011C506.855 318.16 504.706 316.735 501.494 316.735C499.096 316.735 496.607 317.843 494.028 320.061C491.494 322.278 490.227 323.793 490.227 324.608V361.801C490.227 364.833 490.68 366.778 491.584 367.638C492.489 368.498 494.186 369.177 496.675 369.674V373H463.214V369.674ZM541.402 341.168C541.402 331.486 544.366 323.409 550.293 316.938C556.266 310.468 563.754 307.233 572.758 307.233C581.944 307.233 589.455 310.536 595.292 317.142C601.174 323.748 604.115 331.757 604.115 341.168C604.115 350.444 601.219 358.43 595.427 365.127C589.636 371.778 582.079 375.104 572.758 375.104C563.709 375.104 556.22 371.869 550.293 365.398C544.366 358.883 541.402 350.806 541.402 341.168ZM561.831 341.168C561.831 350.897 562.329 357.706 563.324 361.598C564.908 367.616 568.053 370.625 572.758 370.625C577.238 370.625 580.179 368.317 581.582 363.702C582.984 359.086 583.686 351.575 583.686 341.168C583.686 330.807 582.939 323.318 581.446 318.703C579.998 314.043 577.125 311.712 572.826 311.712C568.12 311.712 564.976 314.721 563.392 320.739C562.351 324.766 561.831 331.576 561.831 341.168ZM610.087 315.106V311.237C611.309 310.106 612.825 308.771 614.635 307.233C617.033 305.016 619.295 302.731 621.422 300.378C625.63 295.763 629.453 290.808 632.892 285.514H636.421V308.998H649.656V315.106H636.421V356.915C636.421 358.86 636.715 360.489 637.304 361.801C638.209 363.837 639.702 364.855 641.783 364.855C643.593 364.855 645.109 364.222 646.331 362.955C647.552 361.643 648.774 359.856 649.996 357.593L653.321 359.222C651.692 363.023 649.747 366.122 647.484 368.521C643.503 372.729 638.639 374.833 632.892 374.833C629.634 374.833 626.784 374.222 624.34 373C619.635 370.647 617.282 366.371 617.282 360.172V315.106H610.087ZM657.19 341.168C657.19 331.486 660.154 323.409 666.081 316.938C672.054 310.468 679.542 307.233 688.546 307.233C697.732 307.233 705.243 310.536 711.08 317.142C716.962 323.748 719.903 331.757 719.903 341.168C719.903 350.444 717.007 358.43 711.215 365.127C705.424 371.778 697.867 375.104 688.546 375.104C679.497 375.104 672.008 371.869 666.081 365.398C660.154 358.883 657.19 350.806 657.19 341.168ZM677.619 341.168C677.619 350.897 678.117 357.706 679.112 361.598C680.696 367.616 683.841 370.625 688.546 370.625C693.026 370.625 695.967 368.317 697.37 363.702C698.772 359.086 699.474 351.575 699.474 341.168C699.474 330.807 698.727 323.318 697.234 318.703C695.786 314.043 692.913 311.712 688.614 311.712C683.909 311.712 680.764 314.721 679.18 320.739C678.139 324.766 677.619 331.576 677.619 341.168ZM747.119 329.766C747.119 335.105 747.572 339.064 748.477 341.644C749.834 345.716 752.436 347.752 756.282 347.752C759.766 347.752 762.164 346.236 763.476 343.205C764.788 340.128 765.444 335.648 765.444 329.766C765.444 323.522 764.743 318.975 763.34 316.124C761.983 313.273 759.63 311.848 756.282 311.848C752.617 311.848 750.173 313.387 748.952 316.463C747.73 319.495 747.119 323.929 747.119 329.766ZM739.042 388.135C739.042 390.986 740.558 393.226 743.59 394.854C746.667 396.483 751.101 397.298 756.893 397.298C762.051 397.298 766.304 396.891 769.652 396.076C775.942 394.538 779.086 391.71 779.086 387.592C779.086 385.194 778.181 383.384 776.372 382.163C774.607 380.986 771.372 380.398 766.666 380.398H743.861C742.413 381.574 741.373 382.57 740.739 383.384C739.608 384.877 739.042 386.461 739.042 388.135ZM726.826 389.085C726.826 387.095 727.64 385.036 729.269 382.909C730.943 380.828 733.816 379.47 737.889 378.837V377.887C735.174 376.846 733.206 375.783 731.984 374.697C729.812 372.751 728.726 370.149 728.726 366.892C728.726 363 730.423 359.675 733.816 356.915C737.255 354.154 740.604 352.231 743.861 351.146V350.195C739.156 348.295 735.355 345.58 732.459 342.051C729.563 338.521 728.115 334.246 728.115 329.223C728.115 322.889 730.649 317.662 735.717 313.545C740.785 309.427 747.639 307.369 756.282 307.369C759.54 307.369 762.526 307.685 765.241 308.319C767.956 308.952 770.06 309.608 771.553 310.287H789.878V317.685H778.611C780.421 319.45 781.801 321.508 782.751 323.861C783.747 326.214 784.245 328.771 784.245 331.531C784.245 340.218 780.104 346.168 771.824 349.381C767.48 351.1 762.073 351.96 755.603 351.96C754.2 351.96 753.273 351.937 752.82 351.892C752.413 351.847 751.78 351.824 750.92 351.824C749.562 352.05 748.137 352.774 746.644 353.996C745.106 355.263 744.336 356.779 744.336 358.543C744.336 359.946 744.721 361.032 745.49 361.801C746.259 362.57 747.323 363.046 748.68 363.227C749.359 363.317 750.807 363.408 753.024 363.498C755.241 363.543 756.96 363.566 758.182 363.566L767.209 363.702C772.322 363.792 776.62 364.539 780.104 365.941C786.756 368.656 790.082 373.52 790.082 380.534C790.082 389.583 785.104 395.805 775.15 399.198C769.901 400.963 763.295 401.845 755.332 401.845C748.816 401.845 743.205 401.212 738.5 399.945C730.717 397.818 726.826 394.198 726.826 389.085ZM795.647 369.674C798.317 369.358 800.172 368.724 801.212 367.774C802.253 366.824 802.819 364.991 802.909 362.276L803.045 358.204V320.4C803.045 317.504 802.547 315.536 801.552 314.495C800.556 313.454 798.588 312.753 795.647 312.391V308.998H822.049V319.925C824.99 316.079 827.908 313.025 830.804 310.762C833.7 308.5 837.048 307.369 840.849 307.369C843.7 307.369 846.256 308.296 848.519 310.151C850.826 311.961 851.98 314.631 851.98 318.16C851.98 320.875 851.166 323.115 849.537 324.879C847.953 326.644 845.872 327.526 843.292 327.526C840.351 327.526 837.795 326.146 835.623 323.386C833.496 320.626 832.003 319.246 831.144 319.246C829.288 319.246 827.411 320.4 825.51 322.708C823.655 324.97 822.728 328.228 822.728 332.481V358.747C822.728 363.362 823.384 366.258 824.696 367.435C826.053 368.566 828.723 369.312 832.705 369.674V373H795.647V369.674ZM885.373 365.059C887.635 365.059 889.739 364.38 891.685 363.023C892.771 362.208 894.06 360.942 895.553 359.222V338.929C891.843 339.834 888.585 341.259 885.78 343.205C881.029 346.508 878.653 350.716 878.653 355.829C878.653 358.86 879.332 361.168 880.689 362.751C882.092 364.29 883.653 365.059 885.373 365.059ZM858.428 360.037C858.428 353.792 861.437 348.838 867.455 345.173C873.472 341.508 882.907 337.82 895.757 334.11V323.997C895.757 319.88 894.875 316.848 893.11 314.902C891.39 312.911 888.314 311.916 883.879 311.916C881.391 311.916 879.332 312.391 877.703 313.341C876.119 314.246 875.328 315.4 875.328 316.803C875.328 317.346 875.418 317.798 875.599 318.16C875.78 318.522 876.052 318.907 876.414 319.314L877.228 320.264C877.861 321.033 878.359 321.893 878.721 322.843C879.128 323.748 879.332 324.721 879.332 325.762C879.332 328.386 878.45 330.422 876.685 331.87C874.966 333.273 872.952 333.974 870.645 333.974C867.975 333.974 865.69 333.182 863.79 331.599C861.934 330.015 861.007 327.73 861.007 324.744C861.007 319.404 863.518 315.174 868.541 312.052C873.563 308.93 879.739 307.369 887.069 307.369C894.942 307.369 901.526 308.884 906.82 311.916C912.069 314.993 914.693 320.649 914.693 328.884V362.548C914.693 363.543 914.942 364.403 915.439 365.127C915.982 365.806 916.571 366.145 917.204 366.145C917.747 366.145 918.222 366.055 918.629 365.874C919.082 365.647 919.761 365.082 920.666 364.177L922.77 367.095C920.055 370.263 917.046 372.48 913.743 373.747C911.661 374.561 909.467 374.968 907.159 374.968C903.042 374.968 900.033 373.769 898.132 371.371C897.046 370.014 896.255 368 895.757 365.331C891.911 369.177 887.567 371.891 882.726 373.475C879.785 374.471 876.889 374.968 874.038 374.968C870.237 374.968 866.685 373.769 863.382 371.371C860.079 368.928 858.428 365.15 858.428 360.037ZM965.053 367.231C970.076 367.231 973.469 363.905 975.234 357.254C976.184 353.589 976.659 348.318 976.659 341.44C976.659 333.476 975.935 327.142 974.487 322.436C973.039 317.685 970.098 315.31 965.664 315.31C962.678 315.31 960.008 316.622 957.655 319.246C955.302 321.87 954.126 323.771 954.126 324.947V358.747C954.126 360.104 955.235 361.869 957.452 364.041C959.714 366.168 962.248 367.231 965.053 367.231ZM926.91 398.316C929.896 397.999 931.932 397.298 933.018 396.212C934.104 395.171 934.647 393.18 934.647 390.239V320.4C934.647 317.504 934.127 315.558 933.086 314.563C932.09 313.522 930.145 312.798 927.249 312.391V308.998H953.787V318.16C955.687 314.993 957.542 312.663 959.352 311.169C962.61 308.545 966.773 307.233 971.84 307.233C979.125 307.233 985.166 309.97 989.962 315.445C994.803 320.92 997.224 329.087 997.224 339.947C997.224 350.037 994.622 358.408 989.419 365.059C984.261 371.665 977.971 374.968 970.551 374.968C966.75 374.968 963.153 373.86 959.759 371.643C957.949 370.466 956.072 368.792 954.126 366.62V378.362C954.171 384.606 954.216 388.113 954.262 388.882C954.578 392.547 955.506 395.058 957.044 396.416C958.628 397.773 961.252 398.565 964.917 398.791V401.642H926.91V398.316ZM1004.01 369.674C1006.55 369.358 1008.4 368.679 1009.58 367.638C1010.8 366.552 1011.41 364.426 1011.41 361.258V290.469C1011.41 287.709 1010.91 285.786 1009.92 284.7C1008.92 283.569 1006.95 282.822 1004.01 282.46V279.066H1030.89V318.16C1033.74 314.721 1036.73 312.074 1039.85 310.219C1043.01 308.319 1046.57 307.369 1050.5 307.369C1055.84 307.369 1060.25 308.93 1063.74 312.052C1067.22 315.129 1068.96 320.4 1068.96 327.866V361.258C1068.96 364.38 1069.48 366.439 1070.52 367.435C1071.61 368.385 1073.4 369.131 1075.89 369.674V373H1043.24V369.674C1045.73 369.177 1047.43 368.498 1048.33 367.638C1049.24 366.778 1049.69 364.833 1049.69 361.801V328.137C1049.69 324.97 1049.37 322.594 1048.74 321.011C1047.65 318.16 1045.5 316.735 1042.29 316.735C1039.89 316.735 1037.4 317.843 1034.82 320.061C1032.29 322.278 1031.02 323.793 1031.02 324.608V361.801C1031.02 364.833 1031.48 366.778 1032.38 367.638C1033.29 368.498 1034.98 369.177 1037.47 369.674V373H1004.01V369.674ZM1081.38 390.918C1081.38 387.751 1082.29 385.42 1084.1 383.927C1085.95 382.434 1088.15 381.688 1090.68 381.688C1092.9 381.688 1094.71 382.344 1096.11 383.656C1097.56 384.968 1098.28 386.529 1098.28 388.339L1097.94 391.393C1097.94 391.981 1098.17 392.524 1098.62 393.022C1099.08 393.52 1099.64 393.769 1100.32 393.769C1102.58 393.769 1104.69 391.936 1106.63 388.271C1107.85 386.009 1109.62 381.574 1111.93 374.968L1095.23 333.771C1094.05 330.875 1092.9 328.16 1091.77 325.626C1090.68 323.092 1089.53 320.626 1088.31 318.228C1087.04 315.785 1086.04 314.246 1085.32 313.613C1084.6 312.979 1083.28 312.572 1081.38 312.391V308.998H1116.13V312.391C1113.96 312.436 1112.18 312.685 1110.77 313.138C1109.42 313.59 1108.74 314.563 1108.74 316.056C1108.74 316.373 1108.8 316.803 1108.94 317.346C1109.12 317.889 1109.48 318.861 1110.03 320.264L1120.95 348.227H1122.04L1130.93 323.183C1131.38 321.825 1131.74 320.649 1132.02 319.653C1132.33 318.613 1132.49 317.708 1132.49 316.938C1132.49 314.993 1131.84 313.771 1130.52 313.273C1129.26 312.73 1127.36 312.436 1124.82 312.391V308.998H1145.86V312.391C1144.05 312.527 1142.56 313.025 1141.38 313.884C1140.25 314.699 1139.07 316.712 1137.85 319.925L1117.08 375.308C1113.28 385.534 1110 392.479 1107.24 396.144C1104.53 399.809 1100.25 401.642 1094.42 401.642C1090.16 401.642 1086.93 400.51 1084.71 398.248C1082.49 396.031 1081.38 393.588 1081.38 390.918Z" fill="black"/>
<path d="M67.7461 289.465C67.9909 320.064 70.2552 340.749 74.5391 351.52C78.8229 362.168 85.3099 367.492 94 367.492C104.893 367.492 112.237 357.578 116.031 337.75C118.112 326.857 119.152 310.762 119.152 289.465V203.359C119.152 172.883 116.949 152.32 112.543 141.672C108.259 130.901 101.956 125.516 93.6328 125.516C85.1875 125.516 78.7617 130.962 74.3555 141.855C69.9492 152.626 67.7461 173.128 67.7461 203.359V289.465ZM8.62891 248.156C8.62891 203.237 18.6654 168.477 38.7383 143.875C54.6497 124.292 72.8867 114.5 93.4492 114.5C117.194 114.5 137.206 126.556 153.484 150.668C170.008 175.392 178.27 206.48 178.27 243.934C178.27 288.118 168.906 322.512 150.18 347.113C134.391 367.798 115.542 378.141 93.6328 378.141C78.2109 378.141 65.0534 373.612 54.1602 364.555C43.2669 355.497 33.9648 343.809 26.2539 329.488C19.6445 317.371 14.9935 303.479 12.3008 287.812C10.7096 278.633 9.48568 265.414 8.62891 248.156ZM213.152 364.004C232.246 364.004 244.486 361.434 249.871 356.293C255.257 351.03 257.949 341.116 257.949 326.551V181.695C257.949 172.393 256.848 165.784 254.645 161.867C252.564 157.951 248.647 155.992 242.895 155.992C239.835 155.992 235.122 157.033 228.758 159.113C224.719 160.337 219.211 162.296 212.234 164.988V155.441L307.152 114.5H313.762V328.754C313.762 342.462 315.965 351.764 320.371 356.66C324.777 361.556 336.038 364.004 354.152 364.004V373H213.152V364.004Z" fill="black"/>
</svg>
