<svg width="1169" height="289" viewBox="0 0 1169 289" fill="none" xmlns="http://www.w3.org/2000/svg">
<path d="M186.914 186.805C186.914 220.761 161.369 227.77 135.824 227.77C123.208 227.77 110.591 225.745 100.778 219.982C90.9648 214.219 84.7344 203.783 84.7344 186.805V171.54C84.7344 137.74 110.591 130.73 135.824 130.73C148.752 130.73 161.213 132.6 171.026 138.363C180.528 144.438 186.914 154.562 186.914 171.54V186.805ZM187.693 74.5005C170.715 70.7622 152.802 69.3604 135.824 69.3604C118.846 69.3604 100.934 70.7622 84.1113 74.5005C70.5601 77.46 57.9434 81.9771 46.5728 88.3633C20.8721 102.538 3.11523 126.992 3.11523 166.4V191.945C3.11523 248.798 40.498 274.343 84.1113 283.844C100.934 287.583 118.846 288.984 135.824 288.984C152.802 288.984 170.715 287.583 187.693 283.844C201.244 280.885 213.705 276.368 225.231 270.137C250.932 255.807 268.689 231.353 268.689 191.945V166.4C268.689 109.703 231.306 84.002 187.693 74.5005ZM540.649 139.297C540.649 88.2075 493.297 69.3604 412.769 69.3604C333.486 69.3604 278.346 82.9116 278.346 153.472H360.277C359.81 134.001 385.822 129.484 416.195 129.173C445.323 129.173 458.718 135.715 458.718 144.593C458.718 155.652 432.395 162.039 399.529 170.138C345.635 182.911 275.075 200.667 275.075 248.486V283.844H537.222V224.032H404.046C410.276 216.399 427.566 211.259 449.217 206.119C489.403 196.306 540.649 182.911 540.649 139.297Z" fill="black"/>
<path d="M634.288 244.028C634.288 252.07 629.701 258.683 621.6 258.683H587.406V229.374H621.6C629.701 229.374 634.288 235.927 634.288 244.028ZM556.191 203.997V284.06H627.438C649.419 284.357 665.741 265.771 665.562 244.028C665.741 222.166 649.419 203.699 627.438 203.997H556.191ZM674.855 284.06H768.56V263.508H706.07V253.262H768.56V234.735H706.07V224.489H768.56V203.997H674.855V284.06ZM809.782 230.268C809.782 223.894 821.696 222.464 831.406 222.464C841.176 222.464 849.456 223.953 853.03 230.268H885.734C882.756 205.248 859.464 202.091 831.406 201.912C803.289 201.912 777.078 207.393 777.078 230.268C777.019 250.283 808.412 251.832 830.751 252.964C843.32 253.56 853.03 254.096 853.03 257.61C853.03 263.806 841.116 265.414 831.406 265.414C821.637 265.414 813.356 263.806 809.782 257.61H777.078C780.057 282.451 803.349 285.847 831.406 285.906C859.523 285.906 885.734 280.485 885.734 257.61C885.794 237.535 854.4 235.986 832.062 234.854C819.492 234.259 809.782 233.782 809.782 230.268ZM894.074 203.878V283.94H925.289V203.878H894.074ZM988.91 253.679H1014.05C1009.34 259.755 1001.48 260.47 989.148 260.47C976.341 260.291 965.499 258.027 965.678 244.862V242.896C965.499 229.851 976.341 227.468 989.148 227.289C993.735 227.289 997.905 227.766 1001.6 228.719C1005.29 229.672 1008.15 231.459 1010.12 234.14H1043.3C1039.78 209.478 1016.91 201.912 989.148 201.912C959.006 201.972 934.344 210.669 934.463 240.99V246.828C934.344 277.09 959.006 285.787 989.148 285.906C1002.73 285.906 1016.85 282.63 1026.14 273.456L1027.69 285.906H1043.3V239.978H988.91V253.679ZM1135.75 246.292L1100.6 203.878H1057.65V283.94H1088.87V235.033L1131.88 283.94H1167.03V203.878H1135.75V246.292Z" fill="black"/>
</svg>
