<svg width="207" height="131" viewBox="0 0 207 131" fill="none" xmlns="http://www.w3.org/2000/svg">
<path d="M71.4844 45.8281C71.4844 58.8145 61.7148 61.4951 51.9453 61.4951C47.1201 61.4951 42.2949 60.7207 38.542 58.5166C34.7891 56.3125 32.4062 52.3213 32.4062 45.8281V39.9902C32.4062 27.0635 42.2949 24.3828 51.9453 24.3828C56.8896 24.3828 61.6553 25.0977 65.4082 27.3018C69.042 29.625 71.4844 33.4971 71.4844 39.9902V45.8281ZM71.7822 2.87793C65.2891 1.44824 58.4385 0.912109 51.9453 0.912109C45.4521 0.912109 38.6016 1.44824 32.168 2.87793C26.9854 4.00977 22.1602 5.7373 17.8115 8.17969C7.98242 13.6006 1.19141 22.9531 1.19141 38.0244V47.7939C1.19141 69.5371 15.4883 79.3066 32.168 82.9404C38.6016 84.3701 45.4521 84.9062 51.9453 84.9062C58.4385 84.9062 65.2891 84.3701 71.7822 82.9404C76.9648 81.8086 81.7305 80.0811 86.1387 77.6982C95.9678 72.2178 102.759 62.8652 102.759 47.7939V38.0244C102.759 16.3408 88.4619 6.51172 71.7822 2.87793ZM206.769 27.6592C206.769 8.12012 188.659 0.912109 157.861 0.912109C127.54 0.912109 106.452 6.09473 106.452 33.0801H137.786C137.607 25.6338 147.556 23.9062 159.172 23.7871C170.312 23.7871 175.435 26.2891 175.435 29.6846C175.435 33.9141 165.367 36.3564 152.798 39.4541C132.187 44.3389 105.201 51.1299 105.201 69.418V82.9404H205.458V60.0654H154.525C156.908 57.1465 163.521 55.1807 171.801 53.2148C187.17 49.4619 206.769 44.3389 206.769 27.6592ZM26.646 116.567C26.646 119.27 25.1045 121.492 22.3818 121.492H10.8906V111.642H22.3818C25.1045 111.642 26.646 113.844 26.646 116.567ZM0.400391 103.114V130.02H24.3438C31.731 130.12 37.2163 123.874 37.1562 116.567C37.2163 109.22 31.731 103.014 24.3438 103.114H0.400391ZM40.2793 130.02H71.77V123.113H50.7695V119.67H71.77V113.444H50.7695V110H71.77V103.114H40.2793V130.02ZM85.6235 111.942C85.6235 109.8 89.6274 109.32 92.8906 109.32C96.1738 109.32 98.9565 109.82 100.158 111.942H111.148C110.147 103.534 102.32 102.473 92.8906 102.413C83.4414 102.413 74.6328 104.255 74.6328 111.942C74.6128 118.669 85.1631 119.189 92.6704 119.57C96.8945 119.77 100.158 119.95 100.158 121.131C100.158 123.213 96.1538 123.754 92.8906 123.754C89.6074 123.754 86.8247 123.213 85.6235 121.131H74.6328C75.6338 129.479 83.4614 130.621 92.8906 130.641C102.34 130.641 111.148 128.819 111.148 121.131C111.168 114.385 100.618 113.864 93.1108 113.484C88.8867 113.284 85.6235 113.124 85.6235 111.942ZM113.951 103.074V129.98H124.441V103.074H113.951ZM145.822 119.81H154.271C152.689 121.852 150.046 122.092 145.902 122.092C141.598 122.032 137.955 121.271 138.015 116.847V116.187C137.955 111.802 141.598 111.001 145.902 110.941C147.444 110.941 148.845 111.102 150.086 111.422C151.328 111.742 152.289 112.343 152.949 113.244H164.1C162.919 104.956 155.231 102.413 145.902 102.413C135.772 102.433 127.484 105.356 127.524 115.546V117.508C127.484 127.678 135.772 130.601 145.902 130.641C150.467 130.641 155.211 129.54 158.334 126.457L158.855 130.641H164.1V115.206H145.822V119.81ZM195.17 117.328L183.359 103.074H168.925V129.98H179.415V113.544L193.869 129.98H205.681V103.074H195.17V117.328Z" fill="black"/>
</svg>
