<svg width="167" height="179" viewBox="0 0 167 179" fill="none" xmlns="http://www.w3.org/2000/svg">
<path d="M9.33643 68.7417C9.33643 51.5815 15.243 35.9447 27.0562 21.8311C38.8693 7.65527 51.9259 0.567383 66.2261 0.567383C73.8114 0.567383 79.9355 3.52067 84.5986 9.42725C89.2617 15.2716 91.5933 22.9813 91.5933 32.5562C91.5933 49.0324 85.5934 64.2962 73.5938 78.3477C61.6562 92.3991 48.6618 99.4248 34.6104 99.4248C27.2738 99.4248 21.2118 96.5337 16.4243 90.7515C11.6991 84.9692 9.33643 77.6326 9.33643 68.7417ZM77.3242 43.7476C77.3242 33.7375 75.0859 25.6548 70.6094 19.4995C66.1328 13.2821 60.2884 10.1733 53.0762 10.1733C44.9313 10.1733 37.9678 14.6499 32.1855 23.603C26.4655 32.494 23.6055 43.2502 23.6055 55.8716C23.6055 66.0682 25.8127 74.2752 30.2271 80.4927C34.7036 86.6479 40.5791 89.7256 47.8535 89.7256C55.9984 89.7256 62.9308 85.249 68.6509 76.2959C74.4331 67.3428 77.3242 56.4933 77.3242 43.7476ZM130.446 54.4727C151.088 57.8301 161.409 67.3117 161.409 82.9175C161.409 93.9845 155.938 103.901 144.995 112.668C134.052 121.497 121.742 125.911 108.063 125.911C100.478 125.911 93.1103 124.761 85.9603 122.46L96.9651 110.616C105.856 114.409 114.063 116.305 121.586 116.305C129.731 116.305 136.477 113.974 141.824 109.311C147.171 104.71 149.845 98.8652 149.845 91.7773C149.845 83.3216 146.021 76.5757 138.373 71.5396C130.788 66.5034 120.56 63.9854 107.69 63.9854C105.701 63.9854 103.525 64.234 101.162 64.7314L112.26 53.8198H115.338C116.332 53.8198 117.856 53.8509 119.908 53.9131C139.679 49.0013 149.565 39.6751 149.565 25.9346C149.565 20.7119 147.762 16.453 144.156 13.1577C140.612 9.86247 136.011 8.21484 130.353 8.21484C121.4 8.21484 113.97 11.1992 108.063 17.168C107.442 15.9867 107.131 15.1162 107.131 14.5566C107.131 11.6344 110.675 8.58789 117.762 5.41699C124.85 2.18392 131.596 0.567383 138 0.567383C145.834 0.567383 152.238 2.49479 157.212 6.34961C162.248 10.2044 164.766 15.1473 164.766 21.1782C164.766 33.4888 153.326 44.5869 130.446 54.4727ZM9.93359 178.104C3.56152 178.104 0.375488 173.885 0.375488 165.445C0.375488 158.648 2.86768 152.106 7.85205 145.819C12.8364 139.504 18.0049 136.346 23.3574 136.346C29.8145 136.346 33.043 140.566 33.043 149.005C33.043 155.831 30.5508 162.387 25.5664 168.674C20.582 174.961 15.3711 178.104 9.93359 178.104ZM15.0737 173.347C18.3306 173.347 21.0493 171.534 23.23 167.909C25.439 164.284 26.5435 159.767 26.5435 154.358C26.5435 145.522 23.7964 141.104 18.3022 141.104C15.0737 141.104 12.355 142.931 10.146 146.584C7.96533 150.209 6.875 154.712 6.875 160.093C6.875 168.929 9.60791 173.347 15.0737 173.347ZM65.1412 142.378H46.7896L44.6656 161.155C44.2975 164.525 44.1134 167.017 44.1134 168.631C44.1134 171.832 45.2037 173.432 47.3844 173.432C49.735 173.432 52.1705 171.506 54.691 167.654C55.1158 168.192 55.3282 168.674 55.3282 169.099C55.3282 170.685 53.9264 172.582 51.1227 174.791C48.3473 177 45.9542 178.104 43.9435 178.104C39.922 178.104 37.9112 175.527 37.9112 170.373C37.9112 168.476 38.152 165.403 38.6334 161.155L40.7149 142.378H31.7516L36.7218 137.451H41.2672L42.1593 129.719L48.4039 127.638L47.3419 137.451H65.6935C66.6847 127.652 69.1202 120.02 73.0001 114.554C79.089 106.029 86.2257 101.767 94.4103 101.767C95.798 101.767 97.1573 101.923 98.4884 102.234L92.2438 108.352C90.6295 107.87 89.1144 107.629 87.6983 107.629C79.2589 107.629 74.3028 114.2 72.8302 127.34L69.9415 153.551C73.255 148.566 76.8941 144.46 80.859 141.231C84.8521 137.975 88.2506 136.346 91.0543 136.346C93.8297 136.346 95.2174 138.272 95.2174 142.124C95.2174 143.228 95.0475 144.956 94.7076 147.306L92.4137 163.151C91.9605 166.295 91.734 168.815 91.734 170.713C91.734 172.157 92.1446 172.879 92.9659 172.879C94.9483 172.879 97.3414 170.274 100.145 165.063C100.825 165.488 101.165 165.927 101.165 166.38C101.165 168.249 99.5787 170.67 96.4068 173.644C93.2633 176.618 90.7003 178.104 88.7179 178.104C86.5089 178.104 85.4044 176.519 85.4044 173.347C85.4044 171.024 85.7018 167.81 86.2965 163.704L87.7833 153.423C88.2647 150.053 88.5055 147.391 88.5055 145.437C88.5055 143.228 87.7267 142.124 86.169 142.124C82.544 142.124 78.8624 144.587 75.1241 149.515C71.4142 154.443 69.2477 159.71 68.6246 165.318L67.4776 175.513L61.148 178.104L61.2755 176.915L61.6153 173.771L61.9552 170.798L65.1412 142.378ZM126.636 163.491C127.344 163.973 127.698 164.539 127.698 165.19C127.698 166.068 126.792 167.569 124.979 169.693C120.136 175.301 115.35 178.104 110.621 178.104C107.732 178.104 105.353 176.958 103.484 174.664C101.615 172.37 100.68 169.438 100.68 165.87C100.68 159.413 103.116 152.885 107.987 146.287C112.886 139.66 117.729 136.346 122.515 136.346C125.97 136.346 127.698 138.201 127.698 141.911C127.698 146.074 125.673 150.138 121.623 154.103C117.602 158.068 112.688 160.829 106.883 162.387C107.449 169.212 110.139 172.625 114.954 172.625C119.712 172.625 123.606 169.58 126.636 163.491ZM107.052 157.204C107.874 157.487 108.624 157.629 109.304 157.629C112.816 157.629 115.888 156.553 118.522 154.4C121.156 152.248 122.473 149.728 122.473 146.839C122.473 143.525 120.788 141.869 117.418 141.869C114.982 141.869 112.773 143.327 110.791 146.244C108.837 149.133 107.591 152.786 107.052 157.204ZM142.719 154.23C149.006 142.308 155.194 136.346 161.283 136.346C162.869 136.346 164.455 136.714 166.041 137.451L160.051 143.993C159.145 143.483 157.984 143.228 156.568 143.228C153.622 143.228 150.507 145.621 147.222 150.407C143.965 155.165 142.054 160.121 141.487 165.275L140.34 175.641L134.053 177.765L134.18 176.49L134.478 173.729L134.818 170.968L137.027 150.747L137.282 148.538C137.48 146.867 137.579 145.508 137.579 144.46C137.579 142.732 137.097 141.869 136.135 141.869C133.869 141.869 131.617 144.29 129.38 149.133C128.672 148.595 128.332 148.042 128.361 147.476C128.446 145.749 130.017 143.469 133.076 140.637C136.163 137.776 138.598 136.346 140.383 136.346C142.79 136.346 143.993 137.932 143.993 141.104C143.993 141.869 143.923 142.902 143.781 144.205L143.484 147.179L143.101 150.747L142.719 154.23Z" fill="black"/>
</svg>
