<svg width="550" height="156" viewBox="0 0 550 156" fill="none" xmlns="http://www.w3.org/2000/svg">
<path d="M55.5179 1.13818L81.0118 57.743H59.172L54.869 48.1895H26.7966L22.5106 57.743H0.824463L26.2331 1.13818H55.5179ZM33.5073 31.8461H48.1582L40.7986 16.9869L33.5073 31.8461Z" fill="black"/>
<path d="M156.111 57.743H130.378L102.544 23.5378V57.743H83.761V0.984619H109.989L137.31 34.6097V0.984619H156.094L156.111 57.743Z" fill="black"/>
<path d="M302.159 57.743H162.343V1.13819H301.92C305.197 1.11288 308.473 1.3181 311.721 1.75235C314.697 2.1938 317.606 3.0077 320.379 4.17486C323.11 5.27418 325.586 6.9234 327.653 9.01988C329.796 11.3875 331.409 14.1851 332.383 17.2257C333.673 21.1662 334.291 25.2954 334.21 29.4406C334.271 33.299 333.611 37.1349 332.263 40.7513C331.15 43.7948 329.404 46.5682 327.141 48.8889C324.954 50.9883 322.439 52.717 319.696 54.0069C316.99 55.3375 314.119 56.3013 311.158 56.873C308.192 57.4449 305.179 57.7362 302.159 57.743ZM300.878 42.2867C303.515 42.3725 306.13 41.7854 308.477 40.5807C310.438 39.5536 312.045 37.9605 313.087 36.0087C314.084 34.0014 314.582 31.7834 314.539 29.543C314.705 26.117 313.536 22.7599 311.277 20.1771C309.092 17.8456 305.625 16.6741 300.878 16.6627H181.195V42.2526L300.878 42.2867Z" fill="black"/>
<path d="M338.598 0.984619H380.348C381.424 0.984619 382.449 0.984619 383.422 1.06992C384.791 1.1686 386.154 1.34517 387.503 1.59878C389.13 1.85868 390.73 2.26406 392.284 2.81003C393.894 3.41085 395.43 4.1951 396.861 5.14724C398.417 6.15276 399.797 7.40953 400.942 8.86631C402.16 10.5177 403.09 12.3636 403.691 14.3255C404.457 16.7585 404.826 19.2988 404.784 21.8489C404.784 30.7883 401.306 37.1744 394.35 41.0072L405.996 57.743L384.225 57.6577L374.526 44.3168H357.45V57.743H338.598V0.984619ZM378.572 27.7517C383.251 27.7517 385.608 26.0457 385.608 22.4119C385.608 19.1705 383.154 17.5498 378.248 17.5498H357.518V27.7858L378.572 27.7517Z" fill="black"/>
<path d="M409.309 0.984619H472.011V16.748H428.16V21.7636H469.261V36.8105H428.16V41.9285H472.011V57.6918H409.309V0.984619Z" fill="black"/>
<path d="M510.209 1.13818C515.332 1.13818 519.618 1.27466 523.238 1.5135C526.478 1.70141 529.698 2.14637 532.868 2.84418C535.244 3.32266 537.543 4.12637 539.699 5.23257C541.39 6.15865 542.836 7.47457 543.916 9.07105C545.028 10.6952 545.811 12.5207 546.221 14.4449C546.69 16.8268 546.908 19.2512 546.87 21.6783H526.721C526.756 20.9797 526.603 20.2845 526.277 19.6653C525.756 19.0168 525.064 18.5264 524.279 18.2493C522.724 17.6735 521.087 17.3454 519.43 17.2769C517.227 17.0892 514.307 16.9869 510.687 16.9869C505.889 16.9869 502.388 17.1063 500.168 17.311C498.734 17.3665 497.317 17.6427 495.968 18.1299C495.665 18.2921 495.419 18.5416 495.26 18.846C495.102 19.1503 495.039 19.4953 495.08 19.8359C495.08 20.5353 495.865 21.013 497.3 21.2518C498.734 21.4907 503.037 21.9172 510.209 22.5143C510.286 22.4855 510.371 22.4855 510.448 22.5143C524.689 23.6516 533.728 24.6752 537.564 25.5851C542.567 26.7793 545.812 28.7923 547.263 31.6584C548.378 34.3164 548.88 37.1909 548.732 40.0689C548.765 42.2079 548.587 44.345 548.202 46.4494C547.845 48.1188 547.128 49.6905 546.102 51.0555C545.026 52.4677 543.619 53.5928 542.004 54.3311C539.777 55.2714 537.443 55.936 535.054 56.31C531.695 56.8958 528.301 57.2605 524.894 57.4018C521.08 57.5838 516.345 57.6805 510.687 57.6919C506.811 57.6919 503.447 57.6919 500.612 57.5213C497.778 57.3507 495.148 57.2312 492.689 56.9583C490.628 56.7605 488.584 56.4069 486.576 55.9006C485.049 55.5292 483.579 54.9554 482.205 54.1946C481.056 53.5663 480.032 52.7338 479.182 51.7379C478.378 50.716 477.76 49.5612 477.355 48.326C476.861 46.8898 476.534 45.4014 476.382 43.8904C476.228 42.3209 476.143 40.4784 476.143 38.3118H495.695C495.657 39.0379 495.81 39.7612 496.138 40.4101C496.692 41.0522 497.453 41.4807 498.29 41.6214C499.84 42.0013 501.425 42.2186 503.02 42.2697C505.035 42.372 507.881 42.4232 511.558 42.4232H513.504C517.241 42.5169 520.981 42.4087 524.706 42.0991C526.038 41.8944 526.704 41.1949 526.704 40.0007C526.704 39.3013 526.243 38.8406 525.321 38.6359C522.804 38.2483 520.267 38.0034 517.722 37.9023L510.192 37.3394L502.866 36.6911C501.159 36.5205 499.058 36.2987 496.548 36.0087C494.633 35.8036 492.73 35.5018 490.845 35.1045C489.564 34.8145 488.01 34.4392 486.235 33.9786C484.829 33.665 483.481 33.1356 482.239 32.409C481.334 31.8119 480.378 31.1125 479.319 30.2936C478.341 29.5848 477.56 28.6397 477.048 27.547C476.551 26.4095 476.146 25.2344 475.835 24.0326C475.477 22.6221 475.299 21.1718 475.306 19.7164C475.29 18.0017 475.427 16.2889 475.716 14.5985C475.975 13.2025 476.376 11.8364 476.911 10.5211C477.392 9.35496 478.08 8.28561 478.943 7.36506C479.773 6.47922 480.694 5.68428 481.692 4.99373C482.846 4.22955 484.114 3.65368 485.449 3.28773C486.97 2.83711 488.515 2.47258 490.077 2.1959C491.613 1.92294 493.492 1.71822 495.78 1.54762C498.068 1.37702 500.271 1.27466 502.456 1.22348C504.642 1.1723 507.186 1.13818 510.209 1.13818Z" fill="black"/>
<path d="M68.4783 98.0044L37.4859 126.614L68.4783 154.746H42.8647L25.4305 137.771L19.2832 143.35V154.746H0.5V98.0044H19.2832V120.404L42.8989 98.0044H68.4783Z" fill="black"/>
<path d="M220.315 135.912H261.502V154.677H201.464V98.0044H220.247L220.315 135.912Z" fill="black"/>
<path d="M330.692 131.135C330.693 131.608 330.664 132.081 330.607 132.551C330.442 133.635 330.202 134.707 329.89 135.758C328.978 139.358 327.148 142.661 324.579 145.346C322.946 147.189 321.04 148.771 318.927 150.037C316.255 151.545 313.38 152.66 310.389 153.347C306.537 154.271 302.586 154.718 298.624 154.678C293.294 154.794 287.99 153.891 283 152.016C279.253 150.697 275.9 148.456 273.25 145.499C271.321 143.159 269.676 140.6 268.349 137.874C267.324 135.838 266.644 133.648 266.334 131.391L266.01 128.729H284.468C284.455 128.905 284.455 129.082 284.468 129.258C284.546 129.748 284.654 130.232 284.793 130.708C284.971 131.418 285.216 132.11 285.527 132.773C285.9 133.553 286.389 134.272 286.979 134.905C287.665 135.711 288.472 136.407 289.369 136.969C290.477 137.65 291.688 138.146 292.955 138.437C294.588 138.828 296.262 139.017 297.941 139C299.625 139.01 301.306 138.861 302.961 138.556C304.228 138.328 305.461 137.944 306.633 137.413C307.508 137.007 308.338 136.509 309.109 135.929C309.727 135.465 310.249 134.886 310.645 134.223C310.97 133.643 311.243 133.148 311.448 132.687C311.629 132.342 311.767 131.975 311.858 131.595V116.753H289.079V97.9874H330.743L330.692 131.135Z" fill="black"/>
<path d="M382.483 98.2262L407.977 154.814H386.12L381.834 145.278H353.762L349.476 154.814H327.789L353.198 98.2262H382.483ZM360.472 128.934H375.123L367.764 114.058L360.472 128.934Z" fill="black"/>
<path d="M429.492 135.912H470.679V154.677H410.641V98.0044H429.424L429.492 135.912Z" fill="black"/>
<path d="M503.225 121.53H549.5V154.746H534.371V148.843C531.836 151.001 528.866 152.589 525.662 153.5C520.856 154.65 515.917 155.149 510.977 154.985C505.85 155.05 500.729 154.592 495.695 153.62C491.848 152.905 488.127 151.635 484.647 149.85C481.854 148.383 479.4 146.349 477.441 143.879C475.651 141.573 474.313 138.951 473.496 136.15C472.639 133.127 472.225 129.995 472.267 126.853C472.225 123.16 472.915 119.496 474.299 116.071C475.547 112.95 477.438 110.125 479.848 107.78C482.304 105.435 485.117 103.494 488.181 102.031C491.497 100.448 495.004 99.3008 498.614 98.6186C502.554 97.8704 506.557 97.5047 510.567 97.5268C515.563 97.4724 520.554 97.8262 525.492 98.5845C529.122 99.1097 532.647 100.198 535.942 101.809C538.475 103.087 540.782 104.769 542.772 106.79C544.653 108.852 546.219 111.18 547.417 113.7L529.675 119.585C526.932 115.639 520.488 113.671 510.345 113.683C507.079 113.617 503.817 113.943 500.629 114.655C498.45 115.097 496.417 116.083 494.721 117.521C493.459 118.664 492.488 120.091 491.887 121.684C491.309 123.427 491.037 125.256 491.084 127.092C491.047 128.78 491.29 130.463 491.801 132.073C492.374 133.558 493.307 134.877 494.516 135.912C496.244 137.289 498.285 138.221 500.459 138.624C503.71 139.298 507.026 139.607 510.345 139.545C512.696 139.561 515.045 139.436 517.381 139.17C518.996 139.013 520.578 138.616 522.076 137.993C522.966 137.62 523.818 137.163 524.621 136.628C525.323 136.11 525.985 135.54 526.601 134.922H503.225V121.53Z" fill="black"/>
<path d="M167.278 153.927H95.731C79.2359 153.927 65.8145 141.985 65.8145 127.296V124.26C65.8145 109.571 79.2359 97.6292 95.731 97.6292H167.278C183.773 97.6292 197.195 109.571 197.195 124.26V127.228C197.195 141.985 183.773 153.927 167.278 153.927ZM95.731 114.365C89.6009 114.365 84.6148 118.801 84.6148 124.26V127.228C84.6148 132.687 89.6009 137.123 95.731 137.123H167.278C173.408 137.123 178.394 132.687 178.394 127.228V124.26C178.394 118.801 173.408 114.365 167.278 114.365H95.731Z" fill="black"/>
<path d="M178.514 90.1398C172.368 91.2693 166.133 91.8403 159.884 91.8458C153.499 91.9092 147.115 91.6301 140.76 91.0099L122.369 89.2186C116.019 88.6064 109.641 88.3274 103.261 88.3826C97.0019 88.3975 90.756 88.9684 84.5977 90.0886V75.4512C90.7538 74.3148 97.0011 73.7438 103.261 73.7452C109.642 73.701 116.02 73.9914 122.369 74.6153C128.499 75.2465 134.629 75.8436 140.76 76.4578C147.115 77.0812 153.499 77.3716 159.884 77.3278C166.134 77.3386 172.371 76.7675 178.514 75.6218V90.1398Z" fill="black"/>
</svg>
