<svg width="121" height="25" viewBox="0 0 121 25" fill="none" xmlns="http://www.w3.org/2000/svg">
<path d="M27.984 17.499C27.984 18.599 27.863 19.534 27.621 20.304C27.401 21.052 26.994 21.723 26.4 22.317C25.828 22.889 25.014 23.318 23.958 23.604C22.902 23.868 21.593 24 20.031 24H7.425H0.891V0.833999H17.391C18.953 0.833999 20.273 0.954999 21.351 1.197C22.451 1.439 23.32 1.824 23.958 2.352C24.618 2.858 25.091 3.463 25.377 4.167C25.663 4.849 25.806 5.674 25.806 6.642C25.806 8.732 25.278 10.239 24.222 11.163C24.684 11.295 25.113 11.504 25.509 11.79C25.927 12.054 26.334 12.428 26.73 12.912C27.126 13.374 27.434 14.001 27.654 14.793C27.874 15.585 27.984 16.487 27.984 17.499ZM8.613 7.269V9.48H17.292C17.6 9.48 17.853 9.37 18.051 9.15C18.271 8.93 18.381 8.666 18.381 8.358C18.381 8.05 18.271 7.797 18.051 7.599C17.853 7.379 17.6 7.269 17.292 7.269H8.613ZM19.899 17.598C20.229 17.598 20.504 17.488 20.724 17.268C20.944 17.048 21.054 16.784 21.054 16.476C21.054 16.146 20.944 15.871 20.724 15.651C20.504 15.431 20.229 15.321 19.899 15.321H8.613V17.598H19.899ZM50.4335 0.899998L60.8285 24H51.9185L50.1695 20.106H38.7185L36.9695 24H28.1255L38.4875 0.899998H50.4335ZM41.4575 13.44H47.4305L44.4275 7.368L41.4575 13.44ZM74.6045 0.636C77.5085 0.636 80.0055 0.888999 82.0955 1.395C84.1855 1.879 85.8355 2.594 87.0455 3.54C88.2555 4.464 89.1355 5.542 89.6855 6.774C90.2355 8.006 90.5105 9.436 90.5105 11.064H82.6235C82.6015 10.954 82.5575 10.811 82.4915 10.635C82.4475 10.459 82.2605 10.162 81.9305 9.744C81.6005 9.304 81.1715 8.919 80.6435 8.589C80.1155 8.237 79.3125 7.929 78.2345 7.665C77.1785 7.379 75.9465 7.236 74.5385 7.236C73.2845 7.236 72.1845 7.335 71.2385 7.533C70.3145 7.731 69.5775 7.984 69.0275 8.292C68.4995 8.6 68.0705 8.996 67.7405 9.48C67.4325 9.942 67.2235 10.404 67.1135 10.866C67.0035 11.306 66.9485 11.801 66.9485 12.351C66.9485 13.121 67.0695 13.803 67.3115 14.397C67.5535 14.991 67.9495 15.541 68.4995 16.047C69.0495 16.531 69.8305 16.905 70.8425 17.169C71.8545 17.433 73.0865 17.565 74.5385 17.565C76.0345 17.565 77.3325 17.455 78.4325 17.235C79.5325 17.015 80.3355 16.751 80.8415 16.443C81.3475 16.135 81.7435 15.827 82.0295 15.519C82.3375 15.189 82.5135 14.914 82.5575 14.694L82.6235 14.364H90.5105C90.5105 15.486 90.3675 16.509 90.0815 17.433C89.7955 18.335 89.2895 19.215 88.5635 20.073C87.8375 20.931 86.8915 21.646 85.7255 22.218C84.5815 22.79 83.0855 23.252 81.2375 23.604C79.3895 23.934 77.2445 24.099 74.8025 24.099C71.8105 24.099 69.3025 23.879 67.2785 23.439C65.2545 22.977 63.6265 22.262 62.3945 21.294C61.1845 20.304 60.3155 19.116 59.7875 17.73C59.2595 16.344 58.9955 14.639 58.9955 12.615C58.9955 10.437 59.3255 8.578 59.9855 7.038C60.6675 5.476 61.6795 4.233 63.0215 3.309C64.3635 2.363 65.9805 1.681 67.8725 1.263C69.7645 0.845 72.0085 0.636 74.6045 0.636ZM120.006 0.833999L107.367 12.516L120.006 24H109.578L102.45 17.07L99.9745 19.347V24H92.2855V0.833999H99.9745V10.008L109.578 0.833999H120.006Z" fill="black"/>
</svg>
